{
  "accessors": [
    {
      "bufferView": 2,
      "componentType": 5126,
      "count": 944,
      "max": [
        71.597923278808594,
        71.798675537109375,
        72
      ],
      "min": [
        -71.597915649414062,
        -71.798675537109375,
        -72
      ],
      "type": "VEC3"
    },
    {
      "bufferView": 2,
      "byteOffset": 11328,
      "componentType": 5126,
      "count": 944,
      "max": [
        0.99443531036376953,
        0.9972236156463623,
        1
      ],
      "min": [
        -0.99443519115447998,
        -0.99722355604171753,
        -1
      ],
      "type": "VEC3"
    },
    {
      "bufferView": 3,
      "componentType": 5126,
      "count": 944,
      "max": [
        1,
        1,
        0.037323478609323502,
        1
      ],
      "min": [
        -0.9999845027923584,
        -1,
        -0.037323441356420517,
        1
      ],
      "type": "VEC4"
    },
    {
      "bufferView": 1,
      "componentType": 5126,
      "count": 944,
      "max": [
        0.9999995231628418,
        1
      ],
      "min": [
        0,
        2.384185791015625e-07
      ],
      "type": "VEC2"
    },
    {
      "bufferView": 0,
      "componentType": 5125,
      "count": 5040,
      "max": [
        943
      ],
      "min": [
        0
      ],
      "type": "SCALAR"
    },
    {
      "bufferView": 2,
      "byteOffset": 22656,
      "componentType": 5126,
      "count": 944,
      "max": [
        72.095138549804688,
        72.297279357910156,
        72.5
      ],
      "min": [
        -72.095123291015625,
        -72.297279357910156,
        -72.5
      ],
      "type": "VEC3"
    },
    {
      "bufferView": 2,
      "byteOffset": 33984,
      "componentType": 5126,
      "count": 944,
      "max": [
        0.99443531036376953,
        0.9972236156463623,
        1
      ],
      "min": [
        -0.99443513154983521,
        -0.99722355604171753,
        -1
      ],
      "type": "VEC3"
    },
    {
      "bufferView": 3,
      "byteOffset": 15104,
      "componentType": 5126,
      "count": 944,
      "max": [
        1,
        1,
        0.037323545664548874,
        1
      ],
      "min": [
        -0.9999845027923584,
        -1,
        -0.037323527038097382,
        1
      ],
      "type": "VEC4"
    },
    {
      "bufferView": 1,
      "byteOffset": 7552,
      "componentType": 5126,
      "count": 944,
      "max": [
        0.9999995231628418,
        1
      ],
      "min": [
        0,
        2.384185791015625e-07
      ],
      "type": "VEC2"
    },
    {
      "bufferView": 0,
      "byteOffset": 20160,
      "componentType": 5125,
      "count": 5040,
      "max": [
        943
      ],
      "min": [
        0
      ],
      "type": "SCALAR"
    }
  ],
  "asset": {
    "extras": {
      "author": "Gravity Jack (https://sketchfab.com/gravityjack)",
      "license": "CC-BY-4.0 (http://creativecommons.org/licenses/by/4.0/)",
      "source": "https://sketchfab.com/3d-models/earth-e7499c9024444299afb9a01107f97523",
      "title": "Earth"
    },
    "generator": "Sketchfab-5.94.0",
    "version": "2.0"
  },
  "bufferViews": [
    {
      "buffer": 0,
      "byteLength": 40320,
      "byteOffset": 0,
      "name": "floatBufferViews",
      "target": 34963
    },
    {
      "buffer": 0,
      "byteLength": 15104,
      "byteOffset": 40320,
      "byteStride": 8,
      "name": "floatBufferViews",
      "target": 34962
    },
    {
      "buffer": 0,
      "byteLength": 45312,
      "byteOffset": 55424,
      "byteStride": 12,
      "name": "floatBufferViews",
      "target": 34962
    },
    {
      "buffer": 0,
      "byteLength": 30208,
      "byteOffset": 100736,
      "byteStride": 16,
      "name": "floatBufferViews",
      "target": 34962
    }
  ],
  "buffers": [
    {
      "byteLength": 130944,
      "uri": "scene.bin"
    }
  ],
  "images": [
    {
      "uri": "textures/earth_baseColor.png"
    },
    {
      "uri": "textures/earth_metallicRoughness.png"
    },
    {
      "uri": "textures/earth_normal.png"
    },
    {
      "uri": "textures/shippingRoutes_baseColor.png"
    }
  ],
  "materials": [
    {
      "doubleSided": true,
      "name": "earth",
      "normalTexture": {
        "index": 2,
        "scale": 1,
        "texCoord": 0
      },
      "pbrMetallicRoughness": {
        "baseColorFactor": [
          1,
          1,
          1,
          1
        ],
        "baseColorTexture": {
          "index": 0,
          "texCoord": 0
        },
        "metallicFactor": 0,
        "metallicRoughnessTexture": {
          "index": 1,
          "texCoord": 0
        },
        "roughnessFactor": 1
      }
    },
    {
      "alphaMode": "BLEND",
      "doubleSided": true,
      "name": "shippingRoutes",
      "pbrMetallicRoughness": {
        "baseColorFactor": [
          1,
          1,
          1,
          0
        ],
        "baseColorTexture": {
          "index": 3,
          "texCoord": 0
        },
        "metallicFactor": 0,
        "metallicRoughnessTexture": {
          "index": 1,
          "texCoord": 0
        },
        "roughnessFactor": 1
      }
    }
  ],
  "meshes": [
    {
      "name": "earth_earth_0",
      "primitives": [
        {
          "attributes": {
            "NORMAL": 1,
            "POSITION": 0,
            "TANGENT": 2,
            "TEXCOORD_0": 3
          },
          "indices": 4,
          "material": 0,
          "mode": 4
        }
      ]
    },
    {
      "name": "shippingRoutes_shippingRoutes_0",
      "primitives": [
        {
          "attributes": {
            "NORMAL": 6,
            "POSITION": 5,
            "TANGENT": 7,
            "TEXCOORD_0": 8
          },
          "indices": 9,
          "material": 1,
          "mode": 4
        }
      ]
    }
  ],
  "nodes": [
    {
      "children": [
        1
      ],
      "name": "RootNode (gltf orientation matrix)",
      "rotation": [
        -0.70710678118654746,
        -0,
        -0,
        0.70710678118654757
      ]
    },
    {
      "children": [
        2
      ],
      "name": "RootNode (model correction matrix)"
    },
    {
      "children": [
        3
      ],
      "matrix": [
        1,
        0,
        0,
        0,
        0,
        0,
        1,
        0,
        0,
        -1,
        0,
        0,
        0,
        0,
        0,
        1
      ],
      "name": "fae8b9b0954d4c05aa3d809c0f15d7c3.fbx"
    },
    {
      "children": [
        4,
        6
      ],
      "name": "RootNode"
    },
    {
      "children": [
        5
      ],
      "matrix": [
        0.92169391688371816,
        -2.7755575615628914e-17,
        -0.38791793407826569,
        0,
        -0.38791793407826569,
        -2.2204460492503131e-16,
        -0.92169391688371827,
        0,
        -2.7755575615628914e-17,
        1.0000000000000002,
        -2.2204460492503131e-16,
        0,
        0.849853515625,
        0,
        -0.348663330078125,
        1
      ],
      "name": "earth"
    },
    {
      "mesh": 0,
      "name": "earth_earth_0"
    },
    {
      "children": [
        7
      ],
      "matrix": [
        0.92169391688371816,
        -2.7755575615628914e-17,
        -0.38791793407826569,
        0,
        -0.38791793407826569,
        -2.2204460492503131e-16,
        -0.92169391688371827,
        0,
        -2.7755575615628914e-17,
        1.0000000000000002,
        -2.2204460492503131e-16,
        0,
        0.849853515625,
        0,
        -0.348663330078125,
        1
      ],
      "name": "shippingRoutes"
    },
    {
      "mesh": 1,
      "name": "shippingRoutes_shippingRoutes_0"
    }
  ],
  "samplers": [
    {
      "magFilter": 9729,
      "minFilter": 9987,
      "wrapS": 10497,
      "wrapT": 10497
    }
  ],
  "scene": 0,
  "scenes": [
    {
      "name": "OSG_Scene",
      "nodes": [
        0
      ]
    }
  ],
  "textures": [
    {
      "sampler": 0,
      "source": 0
    },
    {
      "sampler": 0,
      "source": 1
    },
    {
      "sampler": 0,
      "source": 2
    },
    {
      "sampler": 0,
      "source": 3
    }
  ]
}

